<svg xmlns="http://www.w3.org/2000/svg" xmlns:xlink="http://www.w3.org/1999/xlink" viewBox="0 0 68 63.57"><defs><style>.cls-1{fill:url(#New_Gradient_Swatch_1);}</style><linearGradient id="New_Gradient_Swatch_1" y1="31.78" x2="68" y2="31.78" gradientUnits="userSpaceOnUse"><stop offset="0.1" stop-color="#483c81"/><stop offset="0.9" stop-color="#e94e5a"/></linearGradient></defs><g id="Layer_2" data-name="Layer 2"><g id="icons"><path class="cls-1" d="M65,18.46H47.71v2H65a1,1,0,0,1,1,1V53.38a1,1,0,0,1-1,1H33.78a.72.72,0,0,0-.21,0,.72.72,0,0,0-.21,0l-.1,0v0H13.92a1,1,0,0,1-1-1V27.72h6.69L26.92,35a1,1,0,0,0,.71.3,1,1,0,0,0,1-1V27.72H43.71a4,4,0,0,0,4-4V20.46H13.92a1,1,0,0,0-1,1v6.26h-2V21.46a3,3,0,0,1,3-3H47.71V4a4,4,0,0,0-4-4H4A4,4,0,0,0,0,4V23.72a4,4,0,0,0,4,4h6.92V53.38a3,3,0,0,0,3,3H32.36v5.19H21.26a1,1,0,1,0,0,2H57.6a1,1,0,0,0,0-2H46.55V56.38H65a3,3,0,0,0,3-3V21.46A3,3,0,0,0,65,18.46ZM44.55,61.57H34.36V56.38H44.55Z"/></g></g></svg>